<svg xmlns="http://www.w3.org/2000/svg" xmlns:xlink="http://www.w3.org/1999/xlink" xmlns:sketch="http://www.bohemiancoding.com/sketch/ns" viewBox="0 0 30 37.5" version="1.1" x="0px" y="0px"><title>weather_024-tsunami-wave-sea-forecast</title><desc>Created with Sketch.</desc><g stroke="none" stroke-width="1" fill="none" fill-rule="evenodd" sketch:type="MSPage"><g sketch:type="MSArtboardGroup" transform="translate(-540.000000, -90.000000)" fill="#000000"><g sketch:type="MSLayerGroup" transform="translate(540.000000, 90.000000)"><path d="M19.3491211,17.4462891 L19.3491211,22.4462891 L18.3491211,22.4462891 L18.3491211,18.1962891 L18.1491211,18.3462891 C17.9282072,18.5119745 17.6148065,18.467203 17.4491211,18.2462891 C17.2834357,18.0253752 17.3282072,17.7119745 17.5491211,17.5462891 L21.5402152,14.5529685 C21.7138849,14.4163937 21.9639819,14.4074346 22.1491211,14.5462891 L26.1491211,17.5462891 C26.370035,17.7119745 26.4148065,18.0253752 26.2491211,18.2462891 C26.0834357,18.467203 25.770035,18.5119745 25.5491211,18.3462891 L25.3491211,18.1962891 L25.3491211,23.4462891 L24.3491211,23.4462891 L24.3491211,17.4462891 L21.8491211,15.5712891 L19.3491211,17.4462891 Z M23.3491211,23.4462891 L23.3491211,18.9462891 C23.3491211,18.6701467 23.1252635,18.4462891 22.8491211,18.4462891 L20.8491211,18.4462891 C20.5729787,18.4462891 20.3491211,18.6701467 20.3491211,18.9462891 L20.3491211,23.4462891 L23.3491211,23.4462891 Z" sketch:type="MSShapeGroup" transform="translate(21.849121, 18.946274) rotate(24.000000) translate(-21.849121, -18.946274) "/><path d="M5.39516156,14.2878463 C5.81800833,13.5340414 7.34159767,10.6491254 7.30722912,10.7130732 C8.52811082,8.44144253 9.46966363,6.94308764 10.5287396,5.71726338 C14.1078805,1.57459759 20.6133836,0.530430194 24.765501,3.04370971 C24.8683042,3.10351432 25.0461454,3.21921432 25.2788955,3.39228733 C25.6707751,3.68368909 26.063161,4.02656675 26.4283196,4.41698289 C27.5546987,5.62127247 28.1733229,6.99342038 28.046415,8.51182202 C27.8639627,10.6947897 25.6258542,12.1783326 23.7061068,11.1415164 C23.4631357,11.0102927 23.1597909,11.1008818 23.0285672,11.3438529 C22.8973435,11.586824 22.9879327,11.8901688 23.2309038,12.0213925 C25.8295306,13.4248576 28.804064,11.4531713 29.0429404,8.59511154 C29.196548,6.75725955 28.4614819,5.12683624 27.1586558,3.73389508 C26.7498446,3.29680687 26.3129773,2.91506011 25.8756036,2.589829 C25.6108018,2.39292229 25.4016581,2.25685748 25.275537,2.18360435 C20.7132254,-0.578061901 13.6694041,0.552508398 9.77204166,5.06349871 C8.65341032,6.35825517 7.6793463,7.90834727 6.42638536,10.2396661 C6.45526622,10.185929 4.93854457,13.057841 4.52300895,13.7986124 C2.95243719,16.5984555 1.76253981,17.8942236 0.458920719,18.0016904 C0.183711907,18.0243778 -0.0209970956,18.2658705 0.00169036463,18.5410793 C0.0243778248,18.8162881 0.265870468,19.0209971 0.541079281,18.9983096 C2.30603873,18.8528112 3.66392141,17.3741114 5.39516156,14.2878463 Z" sketch:type="MSShapeGroup"/><path d="M21.5,10.5 C22.6045695,10.5 23.5,9.6045695 23.5,8.5 C23.5,6.84314575 22.1568542,5.5 20.5,5.5 C18.8431458,5.5 17.5,6.84314575 17.5,8.5 C17.5,10.709139 19.290861,12.5 21.5,12.5 C23.709139,12.5 25.5,10.709139 25.5,8.5 C25.5,5.73373419 23.2713125,3.5 20.5,3.5 C14.0459287,3.5 10.9326267,6.85849923 8.34305681,14.0812531 C8.19271857,14.5005722 8.04301682,14.9308904 7.85210954,15.4892724 C7.83376447,15.5429296 7.48336867,16.571797 7.38217676,16.8659316 C5.56909174,22.1360268 4.24347848,24 1.5,24 C1.22385763,24 1,24.2238576 1,24.5 C1,24.7761424 1.22385763,25 1.5,25 C4.85374418,25 6.37931223,22.8548661 8.32778115,17.1912504 C8.42957455,16.8953675 8.78043263,15.8651427 8.79833481,15.8127809 C8.98778069,15.2586733 9.13599454,14.8326321 9.28438459,14.4187469 C11.7475759,7.54848446 14.5734967,4.5 20.5,4.5 C22.7185207,4.5 24.5,6.28551324 24.5,8.5 C24.5,10.1568542 23.1568542,11.5 21.5,11.5 C19.8431458,11.5 18.5,10.1568542 18.5,8.5 C18.5,7.3954305 19.3954305,6.5 20.5,6.5 C21.6045695,6.5 22.5,7.3954305 22.5,8.5 C22.5,9.05228475 22.0522847,9.5 21.5,9.5 C20.9477153,9.5 20.5,9.05228475 20.5,8.5 C20.5,8.22385763 20.2761424,8 20,8 C19.7238576,8 19.5,8.22385763 19.5,8.5 C19.5,9.6045695 20.3954305,10.5 21.5,10.5 Z" sketch:type="MSShapeGroup"/><path d="M14.3588824,21.3297835 C16.8676859,24.4201634 21.5015154,25.5058383 28.5359531,24.9987057 C28.8113807,24.9788493 29.0185621,24.7394744 28.9987057,24.4640469 C28.9788493,24.1886193 28.7394744,23.9814379 28.4640469,24.0012943 C21.7236393,24.4872295 17.3849382,23.4707012 15.1352582,20.6995133 C11.3770151,16.0700557 12.8870649,8.569531 18.4061985,7.53365567 C18.6776019,7.4827165 18.8563235,7.22140621 18.8053844,6.95000279 C18.7544452,6.67859938 18.4931349,6.4998778 18.2217315,6.55081698 C11.8651769,7.74386619 10.1690437,16.1686804 14.3588824,21.3297835 Z" sketch:type="MSShapeGroup"/><path d="M14.7749384,16.7670287 C15.8802784,21.5297282 20.1618923,24.7439221 27.4230725,24.9996901 C27.6990437,25.0094109 27.9306428,24.7935723 27.9403637,24.5176011 C27.9500845,24.2416299 27.7342459,24.0100307 27.4582747,24.0003099 C20.6316243,23.7598478 16.7477687,20.8442498 15.7490485,16.5409547 C14.9728087,13.1962855 16.3392502,9.72802733 18.017578,9.72802733 C18.2937204,9.72802733 18.517578,9.50416971 18.517578,9.22802733 C18.517578,8.95188496 18.2937204,8.72802733 18.017578,8.72802733 C15.5133213,8.72802733 13.8745613,12.8874756 14.7749384,16.7670287 Z" sketch:type="MSShapeGroup"/><path d="M11.910444,19.0030472 C11.943486,16.1136712 12.8794852,12.9804877 13.846869,11.158823 C13.9763834,10.9149365 13.8836665,10.6122352 13.63978,10.4827208 C13.3958935,10.3532064 13.0931923,10.4459233 12.9636778,10.6898098 C11.926619,12.6426785 10.9455588,15.9267003 10.9105094,18.9916122 C10.8572713,23.6470366 12.877215,27.3503251 17.5151813,29.459539 C17.7665507,29.5738546 18.0629969,29.4627506 18.1773125,29.2113812 C18.2916281,28.9600118 18.180524,28.6635656 17.9291546,28.54925 C13.678087,26.6159865 11.8614714,23.2854721 11.910444,19.0030472 Z" sketch:type="MSShapeGroup"/></g></g></g><text x="0" y="45" fill="#000000" font-size="5px" font-weight="bold" font-family="'Helvetica Neue', Helvetica, Arial-Unicode, Arial, Sans-serif">Created by Pham Thi Dieu Linh</text><text x="0" y="50" fill="#000000" font-size="5px" font-weight="bold" font-family="'Helvetica Neue', Helvetica, Arial-Unicode, Arial, Sans-serif">from the Noun Project</text></svg>